<?xml version="1.0" encoding="UTF-8"?>
<svg id="Layer_1" data-name="Layer 1" xmlns="http://www.w3.org/2000/svg" viewBox="0 0 167.35 88.54">
  <defs>
    <style>
      .cls-1 {
        fill: #002169;
      }
    </style>
  </defs>
  <path class="cls-1" d="m64.77,28.02c-9.41,0-16.44,7.16-16.44,16.81,0,.05,0,.1,0,.15,0,0,0,0,0,0,0,1.02-.16,1.78-.51,2.53-3.65,7.39-9.29,11.09-16.86,11.09-10.93,0-18.47-10.11-18.47-25.49,0-13.14,6.27-23.07,17.96-23.07,8.39,0,13.39,4.2,15.76,13.86h1.44v-15.29h-1.35c-.51,1.08-1.36,1.61-2.63,1.61-2.88,0-7.46-2.14-13.56-2.14-14.49,0-25.08,11.98-25.08,28.26,0,17.08,12.2,25.49,23.89,25.49,9.05,0,16.58-4.81,19.95-12.55,1.81,7.25,8.01,12.28,15.88,12.28,9.4,0,16.43-7.15,16.43-16.72s-7.03-16.81-16.43-16.81Zm0,31.75c-6.95,0-10.17-6.8-10.17-14.93,0-9.12,3.82-15.02,10.17-15.02,6.95,0,10.17,7.06,10.17,15.02s-3.05,14.93-10.17,14.93Zm27.22-5.19V4.41h-1.44l-10.34,1.08v1.52h1.95c3.13,0,4.07,1.25,4.07,4.29v41.76c0,4.65-.94,5.99-3.98,5.99h-1.52v1.52h16.69v-1.52h-.76c-3.64,0-4.66-1.07-4.66-4.47Zm25.79-26.56c-3.65,0-7.54,1.79-10.08,4.74V4.41h-1.44l-9.66,1.08v1.52c4.83,0,5.33.63,5.33,5.45v47.48c4.07.71,6.86.99,9.32.99,15.42,0,20.42-9.93,20.42-17.44,0-8.68-6.1-15.47-13.89-15.47Zm-5,31.3c-4.15,0-5.08-1.97-5.08-6.17v-18.06c2.37-3.13,4.66-4.47,7.71-4.47,4.58,0,10,4.57,10,13.59,0,10.82-6.02,15.12-12.63,15.12Zm38.92-30.32v1.52c3.3.18,3.56,2.23,2.38,5.99l-5.26,16.72-7.2-17.88c-1.1-2.69-.17-4.47,2.12-4.83v-1.52h-14.4v1.52c3.47.09,4.58,1.07,6.1,4.74l10.77,26.2-3.9,11.44c-2.68,7.18-7.56,4.97-8.74,4.43l-.28,6.43c1.15.36.82.36,2.06.36,3.64,0,5.78-1.56,8.16-8.89l11.94-37.29c1.7-5.28,3.65-7.42,6.87-7.42v-1.52h-10.59Z"/>
</svg>